<?xml version="1.0" standalone="no"?>
<!DOCTYPE svg PUBLIC "-//W3C//DTD SVG 20010904//EN"
 "http://www.w3.org/TR/2001/REC-SVG-20010904/DTD/svg10.dtd">
<svg version="1.0" xmlns="http://www.w3.org/2000/svg"
 width="271.000000pt" height="271.000000pt" viewBox="0 0 271.000000 271.000000"
 preserveAspectRatio="xMidYMid meet">
<metadata>
Created by potrace 1.11, written by Peter Selinger 2001-2013
</metadata>
<g transform="translate(0.000000,271.000000) scale(0.100000,-0.100000)"
fill="#000000" stroke="none">
<path d="M1163 2355 c-47 -20 -110 -65 -173 -124 -35 -33 -70 -56 -97 -63 -27
-8 -43 -18 -43 -28 0 -31 41 -81 84 -102 35 -17 46 -29 54 -57 9 -31 64 -219
87 -293 l7 -23 -24 23 c-31 28 -38 28 -38 -2 0 -13 -9 -35 -20 -49 -11 -14
-20 -28 -20 -30 0 -3 -5 -18 -10 -33 l-11 -28 -19 32 c-23 38 4 35 -325 33
-222 -2 -252 -4 -267 -19 -10 -10 -18 -29 -19 -42 -1 -14 30 -99 68 -190 96
-224 92 -218 122 -227 14 -4 333 -7 708 -5 l682 2 -5 63 c-5 74 -30 195 -51
245 -24 58 -76 134 -123 180 -43 42 -175 116 -190 107 -5 -3 -11 7 -14 22 -14
65 -17 103 -8 103 18 0 33 50 21 71 -8 16 -7 26 5 44 34 51 38 173 7 232 -18
37 -65 73 -93 73 -7 0 -29 14 -48 31 -74 65 -173 87 -247 54z"/>
<path d="M720 958 c-39 -14 -69 -48 -76 -86 -4 -22 -14 -36 -25 -39 -28 -8
-27 -73 1 -80 21 -6 23 -12 20 -106 -1 -32 3 -64 9 -71 11 -12 68 -13 80 -1 2
3 5 43 5 88 0 80 1 82 26 87 20 4 26 12 28 38 3 26 -1 34 -20 41 -13 5 -26 7
-30 4 -11 -6 -10 5 2 28 6 10 17 19 25 19 11 0 15 11 15 39 0 43 -18 55 -60
39z"/>
<path d="M867 933 c-31 -13 -37 -20 -37 -44 0 -17 -6 -32 -15 -35 -9 -4 -15
-19 -15 -40 0 -22 6 -37 15 -40 12 -5 15 -26 15 -100 0 -100 7 -113 56 -109
40 4 44 13 44 111 l0 94 26 0 c23 0 25 3 22 43 -3 36 -6 42 -25 41 -23 -1 -28
11 -24 62 3 29 -17 34 -62 17z"/>
<path d="M1609 948 c-7 -13 -4 -357 2 -369 8 -16 57 -18 80 -4 5 4 9 46 9 94
0 93 8 111 47 111 32 0 43 -34 40 -127 -2 -74 -1 -77 23 -82 64 -15 65 -14 68
84 4 104 -7 152 -43 185 -26 25 -82 32 -117 16 -14 -7 -17 -1 -20 41 l-3 48
-42 3 c-24 2 -44 2 -44 0z"/>
<path d="M2617 943 c-4 -3 -7 -88 -7 -189 0 -181 0 -182 23 -186 12 -2 33 -1
46 2 l25 6 -1 179 c-1 99 -2 183 -2 188 -1 9 -75 10 -84 0z"/>
<path d="M11 910 c-8 -4 -11 -60 -10 -172 1 -145 3 -167 18 -170 9 -2 59 -4
111 -3 l95 0 3 43 3 42 -64 0 c-77 0 -75 -5 -71 142 2 68 -1 110 -8 114 -15
10 -64 12 -77 4z"/>
<path d="M1068 904 c-33 -18 -48 -43 -48 -83 0 -42 40 -85 105 -111 58 -24 70
-45 33 -59 -17 -7 -33 -3 -64 15 l-41 23 -27 -28 -26 -27 23 -22 c28 -26 88
-52 123 -52 14 0 42 7 61 16 59 29 82 83 59 138 -13 32 -31 43 -119 80 -22 9
-37 21 -35 28 7 20 46 21 75 3 25 -16 26 -16 51 8 30 31 25 49 -21 70 -43 21
-113 21 -149 1z"/>
<path d="M370 863 c-61 -23 -103 -83 -103 -148 0 -117 118 -187 222 -133 106
55 109 206 5 265 -37 21 -91 28 -124 16z m84 -94 c44 -35 29 -112 -24 -119
-35 -5 -50 2 -63 28 -22 42 -11 87 25 102 32 12 32 12 62 -11z"/>
<path d="M1402 855 c-40 -17 -54 -31 -76 -72 -68 -133 93 -280 218 -198 l26
17 -21 30 c-13 18 -28 28 -38 25 -30 -9 -36 -9 -58 -8 -12 0 -29 8 -37 17 -16
16 -21 71 -8 90 11 17 45 32 62 28 8 -2 26 -6 41 -10 20 -4 27 -1 37 21 18 38
15 45 -23 61 -43 18 -80 17 -123 -1z"/>
<path d="M2015 856 c-37 -16 -83 -68 -91 -102 -15 -59 12 -126 70 -168 38 -29
124 -29 162 0 51 38 69 71 69 129 0 57 -18 91 -67 128 -33 25 -104 31 -143 13z
m105 -92 c19 -18 18 -80 -2 -100 -23 -24 -68 -21 -90 6 -25 31 -22 66 7 96 27
27 55 26 85 -2z"/>
<path d="M2355 856 c-41 -18 -83 -69 -90 -110 -18 -93 59 -186 152 -186 15 0
46 9 69 21 47 22 84 82 84 134 0 107 -118 184 -215 141z m108 -98 c22 -26 22
-60 -1 -88 -37 -46 -112 -15 -112 47 0 13 11 35 25 49 29 29 58 26 88 -8z"/>
<path d="M28 468 c-31 -24 -23 -92 11 -103 30 -9 68 11 75 40 14 55 -43 96
-86 63z m60 -52 c-4 -30 -44 -34 -53 -5 -5 16 -2 26 10 36 23 16 47 -1 43 -31z"/>
<path d="M130 465 c0 -8 6 -15 14 -15 10 0 16 -14 18 -42 2 -24 8 -43 13 -43
6 0 11 19 13 43 2 28 8 42 18 42 8 0 14 7 14 15 0 11 -12 15 -45 15 -33 0 -45
-4 -45 -15z"/>
<path d="M300 426 c0 -30 4 -57 9 -61 12 -7 25 31 16 45 -3 5 -2 10 3 10 5 0
12 -9 15 -20 8 -29 35 -24 44 8 l7 27 6 -33 c7 -44 24 -45 28 -2 6 76 -23 107
-52 53 l-14 -28 -13 28 c-7 15 -20 27 -31 27 -15 0 -18 -8 -18 -54z"/>
<path d="M449 473 c-4 -44 -5 -90 -2 -99 5 -14 70 -11 84 3 6 6 9 21 7 34 -2
18 -11 25 -36 29 -18 3 -33 8 -32 13 1 22 -1 27 -10 27 -5 0 -10 -3 -11 -7z
m66 -73 c-3 -5 -15 -10 -26 -10 -10 0 -19 5 -19 10 0 6 12 10 26 10 14 0 23
-4 19 -10z"/>
<path d="M557 473 c-4 -3 -7 -30 -7 -59 0 -41 3 -52 13 -48 9 3 14 23 15 59 0
52 -5 64 -21 48z"/>
<path d="M618 468 c-17 -13 -21 -27 -19 -65 1 -27 35 -47 67 -39 31 8 21 35
-11 29 -17 -4 -25 1 -30 17 -8 26 7 44 35 45 11 0 20 5 20 10 1 15 -43 17 -62
3z"/>
<path d="M720 445 c0 -19 -5 -44 -12 -55 -7 -10 -9 -22 -5 -26 13 -13 37 21
40 54 2 33 26 45 28 15 3 -49 5 -58 14 -61 6 -1 11 22 13 53 l3 55 -41 0 c-39
0 -40 -1 -40 -35z"/>
<path d="M829 478 c-1 -2 -3 -26 -5 -55 -4 -63 16 -78 43 -33 21 36 32 39 26
6 -3 -15 1 -25 11 -29 14 -5 16 3 16 53 0 70 -15 78 -45 28 l-20 -33 -3 33
c-2 17 -7 32 -13 32 -5 0 -10 -1 -10 -2z"/>
<path d="M935 469 c-4 -6 2 -13 14 -16 17 -4 21 -13 21 -49 0 -55 26 -52 28 3
1 22 8 41 17 45 8 5 15 13 15 18 0 14 -87 13 -95 -1z"/>
<path d="M1056 464 c-41 -40 -1 -117 51 -98 34 11 27 29 -9 25 -16 -1 -28 2
-28 8 0 6 15 11 34 11 43 0 52 14 32 45 -19 29 -57 33 -80 9z m54 -22 c0 -4
-9 -8 -20 -8 -22 0 -27 12 -7 19 14 5 27 -1 27 -11z"/>
<path d="M1180 445 c0 -19 -5 -44 -12 -55 -7 -10 -9 -22 -5 -26 13 -13 35 17
41 58 8 49 26 40 28 -15 1 -20 7 -38 15 -41 10 -4 13 9 13 54 l0 60 -40 0
c-39 0 -40 -1 -40 -35z"/>
<path d="M1295 466 c-17 -12 -18 -17 -6 -42 9 -20 9 -30 2 -32 -14 -5 -14 -32
-1 -32 6 0 19 9 30 20 25 25 26 25 33 -1 10 -38 27 -9 27 47 l0 54 -33 0 c-18
0 -42 -6 -52 -14z m55 -26 c0 -5 -9 -10 -20 -10 -11 0 -20 5 -20 10 0 6 9 10
20 10 11 0 20 -4 20 -10z"/>
<path d="M1467 473 c-9 -19 -1 -107 11 -111 7 -2 12 7 12 25 l0 28 25 -28 c41
-43 61 -35 25 10 -18 23 -18 26 -3 49 21 32 7 46 -17 17 -22 -28 -30 -29 -30
-3 0 19 -15 28 -23 13z"/>
<path d="M1658 469 c-23 -13 -24 -72 -2 -93 16 -17 33 -20 58 -10 26 10 18 24
-13 24 -52 0 -53 61 -2 64 12 0 21 6 21 11 1 14 -41 17 -62 4z"/>
<path d="M1754 454 c-23 -34 -9 -74 29 -87 36 -12 67 14 67 56 0 56 -66 77
-96 31z m70 -26 c-1 -10 -2 -23 -3 -29 0 -6 -11 -9 -23 -7 -17 2 -24 11 -26
31 -3 26 -1 28 25 25 19 -2 28 -8 27 -20z"/>
<path d="M1877 473 c-14 -13 -6 -25 13 -20 24 6 37 -8 15 -17 -19 -7 -19 -26
0 -26 8 0 15 -5 15 -11 0 -7 -10 -9 -25 -7 -16 4 -25 1 -25 -8 0 -18 36 -27
59 -14 16 8 20 18 16 50 -2 22 -6 44 -10 50 -7 11 -48 14 -58 3z"/>
<path d="M1990 452 c0 -16 -7 -37 -15 -48 -15 -20 -20 -64 -7 -64 4 0 13 5 20
12 17 17 72 18 72 1 0 -8 5 -13 12 -11 14 5 22 48 8 48 -6 0 -10 20 -10 45 l0
45 -40 0 c-37 0 -40 -2 -40 -28z m55 -32 c0 -16 -7 -26 -18 -28 -13 -3 -17 3
-17 28 0 25 4 31 18 28 11 -2 17 -12 17 -28z"/>
<path d="M2117 473 c-14 -13 -7 -25 12 -20 10 2 25 1 32 -4 8 -5 10 -9 4 -10
-51 -4 -75 -22 -68 -49 6 -21 8 -22 65 -24 l38 -1 0 42 c0 24 -6 48 -16 57
-16 16 -55 22 -67 9z m48 -73 c-3 -5 -15 -10 -26 -10 -11 0 -17 5 -14 10 3 6
15 10 26 10 11 0 17 -4 14 -10z"/>
<path d="M2210 469 c0 -6 9 -13 20 -16 14 -4 19 -13 18 -37 -1 -48 1 -56 15
-50 8 3 12 18 11 40 -2 23 2 37 11 40 7 3 16 12 19 20 4 11 -5 14 -44 14 -30
0 -50 -4 -50 -11z"/>
<path d="M2335 466 c-12 -8 -18 -25 -17 -47 1 -52 47 -75 88 -44 18 13 17 14
-18 15 -21 0 -38 5 -38 10 0 6 16 10 35 10 30 0 35 3 35 23 0 44 -46 62 -85
33z m50 -26 c-3 -5 -13 -6 -21 -3 -12 4 -13 8 -3 14 15 9 32 2 24 -11z"/>
<path d="M2456 438 c-4 -23 -11 -47 -17 -54 -7 -8 -6 -15 2 -20 17 -10 39 23
39 58 0 48 28 35 32 -14 4 -61 22 -49 26 17 l3 55 -39 0 c-39 0 -40 -1 -46
-42z"/>
<path d="M2567 473 c-4 -3 -7 -30 -7 -59 0 -43 3 -52 15 -48 8 4 15 16 15 28
0 19 2 19 23 -8 19 -24 28 -28 51 -22 49 12 57 95 11 112 -25 10 -61 -4 -73
-28 -11 -23 -11 -23 -11 5 -1 26 -10 34 -24 20z m113 -54 c0 -19 -33 -43 -44
-32 -11 11 -6 61 7 66 17 6 37 -12 37 -34z"/>
</g>
</svg>
